<svg width="819" height="1073" viewBox="0 0 819 1073" xmlns="http://www.w3.org/2000/svg">
  <path fill="white" d="M760.518 515.929L430.908 11.0835C425.759 4.75795 417.173 0 408.587 0C400.002 0 391.415 4.74693 386.266 11.0835L56.6571 515.929C-41.2018 666.272 -10.2948 860.933 133.906 976.462C212.881 1041.35 310.728 1073 410.297 1073C460.076 1073 509.867 1065.08 556.224 1049.27C602.579 1033.44 647.21 1009.7 686.692 976.461C827.468 860.935 860.086 666.274 760.516 515.928L760.518 515.929ZM250.653 916.324C248.941 919.492 245.504 921.071 240.355 921.071C236.918 921.071 233.493 919.492 231.769 917.902C116.749 824.533 90.992 669.431 169.967 547.577C173.404 541.251 181.99 539.662 187.139 542.83C192.288 545.998 195.725 553.914 192.288 558.66C120.186 669.439 142.51 811.88 248.94 898.917C254.089 903.675 255.802 911.579 250.652 916.326L250.653 916.324Z"></path>
</svg>
